<svg xmlns="http://www.w3.org/2000/svg" viewBox="0 0 360 132" fill="none">
  <defs>
    <linearGradient id="wrapStem" x1="0" y1="1" x2="1" y2="0">
      <stop offset="0" stop-color="#70402f"/>
      <stop offset=".52" stop-color="#c23172"/>
      <stop offset="1" stop-color="#ef4d96"/>
    </linearGradient>
  </defs>
  <path d="M-10 91C12 106 28 103 44 87C61 69 50 42 72 27C94 12 116 18 130 34C144 50 132 82 154 98C176 114 198 108 211 90C225 70 213 39 237 25C260 11 284 20 297 39C310 57 301 82 320 94C337 105 351 98 370 80" stroke="url(#wrapStem)" stroke-width="6" stroke-linecap="round" stroke-linejoin="round"/>
  <path d="M13 101C25 86 29 70 24 54M52 77c-14-11-27-14-41-8M77 26C66 17 63 6 68-7M113 22c10-12 22-18 37-18M147 91c-15 3-28 11-39 25M191 105c8 11 20 18 35 21M229 32c-13-10-20-22-19-36M275 24c9-11 21-17 35-16M307 83c14-9 28-11 42-5" stroke="#7b523e" stroke-width="2.4" stroke-linecap="round"/>
  <g fill="#4e5d4e">
    <path d="M17 51C1 40-11 41-20 52-6 65 7 64 17 51Z"/>
    <path d="M37 69c17-9 30-7 38 5-16 11-28 9-38-5Z"/>
    <path d="M67 7C54-7 43-9 32-1 8 14 20 17 34 8Z"/>
    <path d="M120 13c14-12 27-12 38-1-13 14-26 14-38 1Z"/>
    <path d="M113 111c-16 10-29 9-39-3 14-13 27-12 39 3Z"/>
    <path d="M220 122c15 9 28 7 36-5-15-11-27-9-36 5Z"/>
    <path d="M208 3c-9-15-8-28 3-37 11 13 10 25-3 37Z"/>
    <path d="M302 9c15-11 29-10 39 2-14 13-27 12-39-2Z"/>
    <path d="M344 76c14-9 27-7 35 4-14 11-26 9-35-4Z"/>
  </g>
  <g fill="#dd327f" stroke="#f460a3" stroke-width="1.8">
    <g transform="translate(45 91) scale(.56)"><circle cy="-13" r="7"/><circle cx="12" cy="-4" r="7"/><circle cx="7" cy="10" r="7"/><circle cx="-7" cy="10" r="7"/><circle cx="-12" cy="-4" r="7"/><circle r="4" fill="#ff90c2"/></g>
    <g transform="translate(130 31) scale(.5)"><circle cy="-13" r="7"/><circle cx="12" cy="-4" r="7"/><circle cx="7" cy="10" r="7"/><circle cx="-7" cy="10" r="7"/><circle cx="-12" cy="-4" r="7"/><circle r="4" fill="#ff90c2"/></g>
    <g transform="translate(211 91) scale(.54)"><circle cy="-13" r="7"/><circle cx="12" cy="-4" r="7"/><circle cx="7" cy="10" r="7"/><circle cx="-7" cy="10" r="7"/><circle cx="-12" cy="-4" r="7"/><circle r="4" fill="#ff90c2"/></g>
    <g transform="translate(300 35) scale(.48)"><circle cy="-13" r="7"/><circle cx="12" cy="-4" r="7"/><circle cx="7" cy="10" r="7"/><circle cx="-7" cy="10" r="7"/><circle cx="-12" cy="-4" r="7"/><circle r="4" fill="#ff90c2"/></g>
  </g>
  <g fill="#f1579c"><circle cx="14" cy="94" r="2.8"/><circle cx="83" cy="22" r="2.8"/><circle cx="161" cy="104" r="2.8"/><circle cx="242" cy="21" r="2.8"/><circle cx="331" cy="91" r="2.8"/></g>
</svg>