<svg xmlns="http://www.w3.org/2000/svg" viewBox="0 0 420 260" fill="none">
  <defs>
    <linearGradient id="twig" x1="0" y1="1" x2="1" y2="0">
      <stop offset="0" stop-color="#6c7269"/>
      <stop offset=".55" stop-color="#b96535"/>
      <stop offset="1" stop-color="#f2a45a"/>
    </linearGradient>
  </defs>
  <g stroke="url(#twig)" stroke-linecap="round" stroke-linejoin="round">
    <path stroke-width="5" d="M18 244C66 213 83 175 116 145c37-34 83-43 124-80 24-22 38-42 48-64"/>
    <path stroke-width="3.4" d="M83 190c-2-31-15-55-36-76M119 145c-8-27-4-52 12-76M174 107c16-25 38-40 65-47M224 77c8 21 23 37 46 48M275 36c21 4 40 14 57 31"/>
    <path stroke-width="2.4" opacity=".72" d="M61 214c25-8 48-7 69 4M148 125c24 5 42 16 56 34M203 93c-8-20-7-39 4-56M282 53c-2 19 3 35 15 49"/>
  </g>
  <g fill="#6c7269" opacity=".88">
    <path d="M44 114c-18-10-30-8-39 4 15 11 28 10 39-4Z"/>
    <path d="M62 126c16-13 29-14 40-4-12 14-26 16-40 4Z"/>
    <path d="M117 72c-16-12-28-13-39-4 11 14 24 17 39 4Z"/>
    <path d="M130 83c16-11 29-10 38 1-13 12-26 12-38-1Z"/>
    <path d="M263 42c-10-17-9-29 2-38 11 13 11 26-2 38Z"/>
    <path d="M286 56c17-5 28-1 34 11-15 7-27 3-34-11Z"/>
    <path d="M324 78c16-6 28-3 35 8-15 9-27 6-35-8Z"/>
  </g>
  <g fill="#e8702a" opacity=".94">
    <circle cx="161" cy="65" r="5"/><circle cx="161" cy="51" r="5"/><circle cx="148" cy="58" r="5"/><circle cx="174" cy="58" r="5"/><circle cx="161" cy="58" r="3" fill="#f2a45a"/>
    <circle cx="258" cy="109" r="5"/><circle cx="258" cy="96" r="5"/><circle cx="246" cy="103" r="5"/><circle cx="270" cy="103" r="5"/><circle cx="258" cy="103" r="3" fill="#f2a45a"/>
    <circle cx="335" cy="113" r="4.5"/><circle cx="335" cy="101" r="4.5"/><circle cx="324" cy="107" r="4.5"/><circle cx="346" cy="107" r="4.5"/><circle cx="335" cy="107" r="2.7" fill="#f2a45a"/>
  </g>
  <g fill="#f2a45a" opacity=".88">
    <circle cx="101" cy="176" r="3.2"/><circle cx="112" cy="169" r="3.2"/><circle cx="123" cy="177" r="3.2"/>
    <circle cx="226" cy="70" r="3"/><circle cx="236" cy="63" r="3"/><circle cx="246" cy="70" r="3"/>
  </g>
</svg>
