<svg xmlns="http://www.w3.org/2000/svg" viewBox="0 0 220 150" fill="none">
  <defs>
    <linearGradient id="cornerStem" x1="0" y1="1" x2="1" y2="0">
      <stop offset="0" stop-color="#75402d"/>
      <stop offset=".6" stop-color="#c45c31"/>
      <stop offset="1" stop-color="#e99a52"/>
    </linearGradient>
  </defs>
  <path d="M-8 148C38 133 57 111 80 88c25-25 47-34 72-36 24-2 43-13 66-45" stroke="url(#cornerStem)" stroke-width="5" stroke-linecap="round"/>
  <path d="M38 127c-5-20-16-33-34-42M72 96c-3-18 2-32 15-44M111 65c15 4 27 12 36 25M145 51c-2-16 3-29 15-39M176 39c13 0 25 5 34 14" stroke="#76513f" stroke-width="2.5" stroke-linecap="round"/>
  <g fill="#52604d">
    <path d="M4 82c-15-9-26-8-34 1 11 13 23 13 34-1Z"/>
    <path d="M47 121c17-9 29-7 36 5-15 10-27 8-36-5Z"/>
    <path d="M77 55c-14-12-26-12-35-2 10 15 22 16 35 2Z"/>
    <path d="M115 74c15-9 27-7 35 4-14 10-26 9-35-4Z"/>
    <path d="M151 25c-9-14-8-25 1-33 10 11 10 22-1 33Z"/>
    <path d="M181 43c13-8 25-6 32 5-13 9-24 7-32-5Z"/>
  </g>
  <g fill="#dd6b32" stroke="#f4ab62" stroke-width="2">
    <g transform="translate(78 91) scale(.78)"><circle cy="-13" r="7"/><circle cx="12" cy="-4" r="7"/><circle cx="7" cy="10" r="7"/><circle cx="-7" cy="10" r="7"/><circle cx="-12" cy="-4" r="7"/><circle r="4" fill="#ffd58e"/></g>
    <g transform="translate(153 52) scale(.62)"><circle cy="-13" r="7"/><circle cx="12" cy="-4" r="7"/><circle cx="7" cy="10" r="7"/><circle cx="-7" cy="10" r="7"/><circle cx="-12" cy="-4" r="7"/><circle r="4" fill="#ffd58e"/></g>
    <g transform="translate(194 36) scale(.46)"><circle cy="-13" r="7"/><circle cx="12" cy="-4" r="7"/><circle cx="7" cy="10" r="7"/><circle cx="-7" cy="10" r="7"/><circle cx="-12" cy="-4" r="7"/><circle r="4" fill="#ffd58e"/></g>
  </g>
  <g fill="#f2a45a"><circle cx="31" cy="116" r="3"/><circle cx="101" cy="66" r="3"/><circle cx="132" cy="44" r="2.8"/><circle cx="173" cy="25" r="2.7"/></g>
</svg>